# xmcd CD database file
# Generated: Fri Sep 14 22:09:48 2001 by KSCD
# 
# Track frame offsets:
#       150
#       16889
#       32605
#       45996
#       68156
#       82099
#       110639
#       118412
#       131063
#       154250
#       188463
#       200494
#       214074
#       228802
#       248384
#
# Disc length: 3544 seconds
#
# Revision: 1
# Processed by: cddbd v1.4PL0 Copyright (c) Steve Scherf et al.
# Submitted via: Kscd 1.3.2
#
DISCID=c40dd60f
DTITLE=Free Beer and Chicken - Nothing Is Kickin'
DYEAR=1900
DGENRE=
TTITLE0=Mardi Gras
TTITLE1=I get the Blues when it rains
TTITLE2=Ooh Poo Pee Doo
TTITLE3=What am I living for
TTITLE4=Nasty Boogie Woogie
TTITLE5=St. James Infirmary
TTITLE6=Crazy Cajun
TTITLE7=Paper in my shoes
TTITLE8=Train Train Train
TTITLE9=One Room Country Shack
TTITLE10=Answer to the Boogie
TTITLE11=Fishing Blues
TTITLE12=Train Song - Squeezebox Express
TTITLE13=Down in the hole
TTITLE14=Teardrops
EXTD=
EXTT0=
EXTT1=
EXTT2=
EXTT3=
EXTT4=
EXTT5=
EXTT6=
EXTT7=
EXTT8=
EXTT9=
EXTT10=
EXTT11=
EXTT12=
EXTT13=
EXTT14=
PLAYORDER=
